# xmcd
#
# Track frame offsets:
#	150
#	17992
#	37475
#	48357
#	65177
#	76295
#	90225
#	107625
#	120485
#	137622
#	152062
#	165130
#	180810
#	195675
#	209007
#	226325
#	238650
#	255007
#	269815
#	286247
#
# Disc length: 4008 seconds
#
# Revision: 7
# Processed by: cddbd v1.5.1PL2 Copyright (c) Steve Scherf et al.
# Submitted via: audiograbber 1.83.01
#
DISCID=0e0fa614
DTITLE=Alan Jackson - The Greatest Hits Collection
DYEAR=1995
DGENRE=Country
TTITLE0=Chattahoochee (Extended Mix)
TTITLE1=Gone Country
TTITLE2=She's Got The Rhythm (And I Got The Blues)
TTITLE3=Midnight In Montgomery
TTITLE4=Tall, Tall Trees
TTITLE5=Chasin' That Neon Rainbow
TTITLE6=I'll Try
TTITLE7=Don't Rock The Jukebox
TTITLE8=Livin' On Love
TTITLE9=Summertime Blues
TTITLE10=Love's Got A Hold On You
TTITLE11=(Who Says) You Can't Have It All
TTITLE12=Home
TTITLE13=Wanted
TTITLE14=I Don't Even Know Your Name
TTITLE15=Dallas
TTITLE16=Here In The Real World
TTITLE17=Someday
TTITLE18=Mercury Blues
TTITLE19=I'd Love You All Over Again
EXTD=
EXTT0=
EXTT1=
EXTT2=
EXTT3=
EXTT4=
EXTT5=
EXTT6=
EXTT7=
EXTT8=
EXTT9=
EXTT10=
EXTT11=
EXTT12=
EXTT13=
EXTT14=
EXTT15=
EXTT16=
EXTT17=
EXTT18=
EXTT19=
PLAYORDER=
